# xmcd
#
# Track frame offsets:
#	150
#	22165
#	33214
#	51331
#	67774
#	82657
#	98499
#	117835
#	129843
#	150412
#	162739
#	174981
#	191609
#	209860
#	225144
#	240982
#	258710
#	274785
#	286210
#	303056
#	329498
#
# Disc length: 4589 seconds
#
# Revision: 0
# Processed by: cddbd v1.5.1PL2 Copyright (c) Steve Scherf et al.
# Submitted via: dBpowerAMP V4.0
#
DISCID=0f11eb15
DTITLE=Chris Youlden - Nowhere Road and Citychild
DYEAR=1973
DGENRE=Blues
TTITLE0=Nowhere Road
TTITLE1=On October Day
TTITLE2=Chink of Sanity
TTITLE3=Crying in The Road
TTITLE4=Mamma Don't Tell You Talk So Loud
TTITLE5=Standin On the Corner
TTITLE6=In the Wood
TTITLE7=Wake Up Neighbours
TTITLE8=Street Sounds
TTITLE9=Time Will Tell
TTITLE10=Pick Up My Dogs
TTITLE11=Conjure Wife
TTITLE12=Born And Raised In the City
TTITLE13=The Morning Light
TTITLE14=Keep Your Lamp Lit
TTITLE15=Little Cog In A Big Wheel
TTITLE16=Peace of Mind
TTITLE17=Walking in The Streets Again
TTITLE18=Spare Change
TTITLE19=Love And Pain
TTITLE20=It Ain't For Real
EXTD=
EXTT0=
EXTT1=
EXTT2=
EXTT3=
EXTT4=
EXTT5=
EXTT6=
EXTT7=
EXTT8=
EXTT9=
EXTT10=
EXTT11=
EXTT12=
EXTT13=
EXTT14=
EXTT15=
EXTT16=
EXTT17=
EXTT18=
EXTT19=
EXTT20=
PLAYORDER=
